<?xml version="1.0" standalone="no"?>
<!DOCTYPE svg PUBLIC "-//W3C//DTD SVG 20010904//EN"
 "http://www.w3.org/TR/2001/REC-SVG-20010904/DTD/svg10.dtd">
<svg version="1.0" xmlns="http://www.w3.org/2000/svg"
 width="300.000000pt" height="342.000000pt" viewBox="0 0 300.000000 342.000000"
 preserveAspectRatio="xMidYMid meet">
<metadata>
Created by potrace 1.10, written by Peter Selinger 2001-2011
</metadata>
<g transform="translate(0.000000,342.000000) scale(0.100000,-0.100000)"
fill="#000000" stroke="none">
<path d="M726 3399 c-91 -22 -131 -79 -124 -174 8 -99 78 -214 216 -357 l85
-88 596 0 596 0 79 82 c225 237 284 422 161 507 -50 34 -116 44 -205 30 -78
-11 -177 -48 -389 -144 -157 -71 -226 -88 -295 -73 -28 5 -114 39 -191 73
-192 86 -251 110 -315 129 -73 20 -166 27 -214 15z m222 -50 c80 -28 169 -64
222 -90 148 -72 282 -117 336 -113 44 3 132 28 189 54 33 15 94 42 135 60 41
18 98 42 125 55 60 27 149 57 161 54 5 -1 17 1 27 6 10 4 43 5 74 2 103 -11
164 -79 148 -165 -16 -84 -107 -222 -218 -329 l-75 -73 -577 0 -576 0 -67 68
c-82 82 -108 115 -168 215 -42 70 -48 86 -50 143 -2 61 0 65 32 94 19 16 38
30 42 31 23 2 45 8 50 14 11 11 129 -5 190 -26z"/>
<path d="M835 3223 c-23 -6 -35 -21 -35 -46 0 -21 75 -123 132 -179 42 -41 90
-51 208 -45 36 2 95 5 132 6 46 1 71 6 83 17 28 28 26 30 -250 159 -69 32
-240 97 -247 94 -2 -1 -12 -4 -23 -6z m198 -92 c61 -27 141 -63 177 -79 36
-16 84 -35 108 -41 23 -7 41 -15 38 -19 -3 -5 -88 -7 -190 -5 l-186 2 -33 37
c-17 20 -40 46 -51 58 -29 34 -76 104 -76 115 0 14 81 -12 213 -68z"/>
<path d="M2050 3201 c-41 -15 -106 -42 -145 -60 -38 -19 -106 -49 -150 -68
-127 -54 -151 -78 -105 -103 16 -9 243 -16 349 -11 34 1 142 115 189 199 11
20 11 27 -3 48 -20 30 -41 30 -135 -5z m96 -53 c-20 -29 -58 -76 -84 -105
l-47 -51 -187 -5 c-104 -3 -188 -2 -188 3 0 4 22 15 49 24 27 9 83 31 124 51
196 90 353 150 366 139 2 -2 -13 -27 -33 -56z"/>
<path d="M925 2656 c-62 -28 -78 -117 -30 -165 l25 -26 563 -3 c506 -3 565 -1
593 13 78 41 70 147 -12 181 -48 20 -1094 20 -1139 0z m1116 -29 c24 -6 41
-17 48 -33 17 -38 14 -50 -20 -78 l-30 -26 -547 3 -547 2 -23 23 c-39 39 -26
88 30 109 40 14 1031 15 1089 0z"/>
<path d="M838 2291 c-349 -279 -664 -813 -785 -1331 -29 -126 -42 -397 -24
-495 35 -190 183 -337 392 -391 184 -47 173 -47 1002 -51 845 -5 948 0 1131
47 345 88 473 326 411 759 -61 416 -307 937 -592 1252 -27 30 -60 67 -74 83
-13 15 -66 64 -118 107 l-94 79 -588 0 -588 0 -73 -59z m1261 5 c45 -24 256
-235 311 -311 24 -33 46 -62 50 -65 16 -13 103 -145 149 -225 29 -49 59 -101
67 -115 33 -57 124 -257 124 -274 0 -6 4 -16 9 -21 14 -15 68 -189 95 -305 67
-292 57 -517 -30 -666 -77 -134 -247 -214 -532 -251 -207 -27 -1507 -26 -1702
1 -301 42 -448 118 -534 275 -75 140 -80 390 -13 656 46 177 117 372 187 505
10 19 21 42 24 50 4 8 19 38 35 65 71 121 87 149 96 164 21 35 124 177 141
196 11 11 31 36 45 55 60 79 249 257 292 275 21 9 178 11 590 11 526 -1 564
-3 596 -20z"/>
<path d="M940 2154 c-37 -25 -234 -227 -269 -276 -57 -81 -166 -243 -180 -268
-200 -366 -298 -674 -302 -955 -3 -183 16 -243 102 -325 46 -44 65 -54 148
-80 128 -38 204 -49 406 -58 208 -9 1252 -7 1394 2 314 21 477 93 542 241 38
86 36 314 -5 490 -17 71 -47 179 -65 230 -12 33 -31 86 -42 118 -19 52 -117
253 -166 337 -87 151 -228 333 -350 453 -120 118 -50 107 -658 107 -476 0
-533 -2 -555 -16z m1198 -121 c298 -296 520 -713 619 -1163 11 -50 17 -125 17
-225 1 -137 -1 -154 -23 -202 -47 -106 -154 -168 -336 -197 -22 -4 -56 -10
-75 -13 -61 -11 -1497 -15 -1615 -4 -326 29 -469 108 -500 276 -12 66 -6 245
10 340 43 246 153 527 308 785 101 168 191 282 330 418 l94 92 532 0 531 0
108 -107z"/>
</g>
</svg>
